<svg width="304" height="67" xmlns="http://www.w3.org/2000/svg" xmlns:xlink="http://www.w3.org/1999/xlink" xml:space="preserve" overflow="hidden"><defs><clipPath id="clip0"><rect x="655" y="519" width="304" height="67"/></clipPath></defs><g clip-path="url(#clip0)" transform="translate(-655 -519)"><path d="M32.3106 60.5255C48.5116 60.5641 61.8483 47.7958 62.5151 31.6086 62.8904 23.4183 59.8743 15.4352 54.1771 9.53915 48.3658 3.44447 40.299 0.0152894 31.8781 0.0598899 20.6454 0.0598899 4.10246 0 0.665444 0 0.309126-0.0110254 0.0113341 0.26889 0.000308714 0.625208 9.96836e-05 0.631966-3.23319e-06 0.638723 4.67374e-12 0.64548L0 0.64548C0 8.83005 6.63487 15.4649 14.8195 15.4649L32.3405 15.4649C37.3188 15.598 41.9213 18.1449 44.6779 22.2924 47.3323 26.2336 47.8723 31.2302 46.1219 35.6479 44.1439 40.8253 39.4289 44.4556 33.9177 45.0439 33.3827 45.0998 32.8452 45.1274 32.3073 45.1271 24.1143 45.1178 17.479 38.4707 17.4845 30.2777 17.4845 28.3779 18.2132 26.1087 19.4975 23.7198L3.50689 23.7198C3.2001 23.7203 2.9335 23.9306 2.86141 24.2288 2.19889 26.8423 1.95519 29.5443 2.13941 32.2341 3.13372 47.8637 15.9085 60.1418 31.5653 60.5155 31.8148 60.5221 32.0611 60.5255 32.3106 60.5255Z" fill="#3B87F4" transform="matrix(1.01333 0 0 1 655.36 519)"/><path d="M96.9748 60.592C80.7607 60.6336 67.4168 47.8464 66.7673 31.6452 66.3926 23.455 69.4084 15.4721 75.1056 9.57571 80.9192 3.48998 88.9816 0.0663298 97.3979 0.109799 108.631 0.109798 125.173 0.0598899 128.63 0.0499083 128.986 0.0497376 129.276 0.338591 129.276 0.695079 129.276 0.701837 129.276 0.708598 129.276 0.715352L129.276 0.715352C129.276 8.89993 122.641 15.5348 114.457 15.5348L96.9453 15.5348C91.9691 15.6649 87.3674 18.2065 84.6076 22.349 81.9511 26.2905 81.4101 31.2887 83.1607 35.7077 85.1406 40.8836 89.8551 44.5119 95.3649 45.1005 95.9001 45.1574 96.4374 45.1863 96.9748 45.187 105.156 45.1723 111.784 38.5419 111.794 30.3609 111.794 28.4577 111.066 26.1919 109.782 23.7996L125.769 23.7996C126.077 23.7886 126.353 23.9911 126.435 24.2887 127.096 26.9022 127.34 29.6042 127.156 32.294 126.166 47.9239 113.391 60.203 97.734 60.5754Z" fill="#FFFFFF" transform="matrix(1.01333 0 0 1 655.36 519)"/><path d="M43.2539 30.2777C37.2306 30.3182 32.3146 25.4682 32.2741 19.4448 32.2737 19.3958 32.2737 19.3468 32.2741 19.2979 32.2741 25.3619 27.3582 30.2777 21.2942 30.2777 27.3582 30.2777 32.2741 35.1936 32.2741 41.2575 32.2741 35.1936 37.19 30.2777 43.2539 30.2777Z" fill="#E5BF88" transform="matrix(1.01333 0 0 1 655.36 519)"/><path d="M64.6412 44.4317C63.8104 46.3029 62.8206 48.0996 61.6833 49.8018 61.0844 50.6968 60.4756 51.5186 59.87 52.2773 58.8978 53.49 57.8473 54.6383 56.7258 55.7143 57.8473 56.7903 58.8978 57.9385 59.87 59.1513 60.4756 59.9099 61.0844 60.7351 61.6833 61.6301 62.8212 63.332 63.8111 65.1287 64.6412 67.0002L64.6412 44.4317Z" fill="#E5BF88" transform="matrix(1.01333 0 0 1 655.36 519)"/><path d="M69.4125 52.2773C68.8069 51.5186 68.198 50.6968 67.5991 49.8018 66.4619 48.0996 65.472 46.3029 64.6412 44.4317L64.6412 67.0002C65.4713 65.1287 66.4612 63.332 67.5991 61.6301 68.198 60.7351 68.8069 59.9099 69.4125 59.1513 70.3846 57.9385 71.4351 56.7903 72.5567 55.7143 71.4351 54.6383 70.3846 53.49 69.4125 52.2773Z" fill="#CE9867" transform="matrix(1.01333 0 0 1 655.36 519)"/><path d="M188.634 60.3724C180.432 60.3724 174.569 57.1583 171.219 50.8133L168.577 45.9955 158.449 45.9955 158.449 59.7769C158.449 60.1059 158.182 60.3724 157.854 60.3724L143.316 60.3724C142.988 60.3724 142.721 60.1059 142.721 59.7769L142.721 0.612208C142.721 0.283283 142.988 0.0166361 143.316 0.0166361L174.287 0.0166361C178.649 0.0166361 182.531 0.981526 185.832 2.88137 189.145 4.78617 191.849 7.59518 193.624 10.9798 195.447 14.4035 196.372 18.4361 196.372 22.9745 196.372 27.5128 195.438 31.5487 193.594 34.9724 191.809 38.3502 189.116 41.1617 185.819 43.0908L184.631 43.7928C184.428 43.9123 184.361 44.1735 184.48 44.3761 184.483 44.3801 184.485 44.3844 184.487 44.3884L194 59.4275C194.188 59.6976 194.121 60.069 193.85 60.2563 193.751 60.3255 193.632 60.3624 193.511 60.3624ZM158.449 30.6403 173.947 30.6403C175.854 30.6403 177.254 30.0249 178.362 28.7072 179.54 27.3032 180.129 25.4299 180.159 22.9844 180.189 20.5389 179.577 18.7122 178.392 17.3282 177.267 15.9973 175.857 15.3884 173.947 15.3884L158.449 15.3884Z" fill="#FFFFFF" transform="matrix(1.01333 0 0 1 655.36 519)"/><path d="M227.076 0.0266178C227.405 0.0266178 227.672 0.293265 227.672 0.62219L227.672 59.7769C227.672 60.1057 227.405 60.3724 227.076 60.3724L212.297 60.3724C211.968 60.3724 211.701 60.1057 211.701 59.7769L211.701 0.622191C211.701 0.293266 211.968 0.026619 212.297 0.026619Z" fill="#FFFFFF" transform="matrix(1.01333 0 0 1 655.36 519)"/><path d="M245.589 59.7735 245.589 24.2887C245.589 23.9579 245.857 23.6898 246.187 23.6898L260.721 23.6898C261.052 23.6898 261.32 23.9579 261.32 24.2887L261.32 30.6403 275.843 30.6403C278.076 30.6403 279.812 29.9117 281.167 28.4111 282.364 27.0802 283.21 25.909 283.21 23.0875 283.21 20.3858 282.544 19.1315 281.19 17.6309 279.836 16.1303 278.126 15.4316 275.867 15.4316L258.372 15.4316C250.233 15.4519 243.619 8.87067 243.599 0.732065 243.599 0.729822 243.599 0.727576 243.599 0.725334L243.599 0.625517C243.599 0.296592 243.865 0.029945 244.195 0.029945L275.494 0.0665444C280.205 0.0665444 284.381 1.06471 287.914 3.04108 291.445 4.99655 294.352 7.91 296.299 11.4457 298.418 15.2586 299.293 18.6424 299.293 23.1242 299.293 27.4296 298.412 30.7768 296.242 34.6663 294.294 38.2074 291.375 41.1177 287.828 43.0542 284.281 45.0073 280.115 45.9955 275.444 45.9955L261.257 45.9955 261.257 59.7735C261.257 60.1042 260.988 60.3724 260.657 60.3724L246.187 60.3724C245.857 60.3724 245.589 60.1042 245.589 59.7735Z" fill="#FFFFFF" transform="matrix(1.01333 0 0 1 655.36 519)"/></g></svg>